<svg width="21" height="22" viewBox="0 0 21 22" fill="none" xmlns="http://www.w3.org/2000/svg">
<path d="M12.1269 15.8253C11.9661 15.8253 11.8052 15.7661 11.6783 15.6391C11.4328 15.3937 11.4328 14.9874 11.6783 14.7419L14.2513 12.169C14.4967 11.9235 14.903 11.9235 15.1484 12.169C15.3939 12.4144 15.3939 12.8207 15.1484 13.0661L12.5755 15.6391C12.457 15.7576 12.2961 15.8253 12.1269 15.8253Z" fill="#752157"/>
<path d="M14.6999 13.2522H5.97371C5.6267 13.2522 5.33893 12.9645 5.33893 12.6175C5.33893 12.2704 5.6267 11.9827 5.97371 11.9827H14.6999C15.0469 11.9827 15.3347 12.2704 15.3347 12.6175C15.3347 12.9645 15.0554 13.2522 14.6999 13.2522Z" fill="#752157"/>
<path d="M5.98234 10.1714C5.82153 10.1714 5.66071 10.1121 5.53376 9.98518C5.28831 9.73973 5.28831 9.33347 5.53376 9.08802L8.10673 6.51502C8.35218 6.26957 8.75847 6.26957 9.00392 6.51502C9.24937 6.76047 9.24937 7.16676 9.00392 7.41221L6.43092 9.98518C6.30396 10.1121 6.14315 10.1714 5.98234 10.1714Z" fill="#752157"/>
<path d="M14.6999 10.1714H5.97371C5.6267 10.1714 5.33893 9.88366 5.33893 9.53664C5.33893 9.18962 5.6267 8.90186 5.97371 8.90186H14.6999C15.0469 8.90186 15.3347 9.18962 15.3347 9.53664C15.3347 9.88366 15.0554 10.1714 14.6999 10.1714Z" fill="#752157"/>
<path d="M10.3412 20.1757C5.32216 20.1757 1.24261 16.0961 1.24261 11.0771C1.24261 6.05806 5.32216 1.97852 10.3412 1.97852C15.3602 1.97852 19.4398 6.05806 19.4398 11.0771C19.4398 16.0961 15.3602 20.1757 10.3412 20.1757ZM10.3412 3.24808C6.02465 3.24808 2.51218 6.76055 2.51218 11.0771C2.51218 15.3936 6.02465 18.9061 10.3412 18.9061C14.6577 18.9061 18.1702 15.3936 18.1702 11.0771C18.1702 6.76055 14.6577 3.24808 10.3412 3.24808Z" fill="#752157"/>
</svg>
