<svg width="54" height="37" viewBox="0 0 54 37" fill="none" xmlns="http://www.w3.org/2000/svg">
<path d="M20.0475 31.1282C19.62 31.1282 19.1925 31.0241 18.855 30.801C18.2025 30.3696 18.2025 29.6556 18.855 29.2242L33.525 19.5255C34.605 18.8115 34.605 17.6512 33.525 16.9372L18.855 7.23849C18.2025 6.8071 18.2025 6.09309 18.855 5.6617C19.5075 5.23032 20.5875 5.23032 21.24 5.6617L35.91 15.3604C37.0575 16.119 37.71 17.1454 37.71 18.2313C37.71 19.3172 37.08 20.3436 35.91 21.1023L21.24 30.801C20.9025 31.0092 20.475 31.1282 20.0475 31.1282Z" fill="#EAEAEA"/>
</svg>
