<svg width="54" height="37" viewBox="0 0 54 37" fill="none" xmlns="http://www.w3.org/2000/svg">
<path d="M33.9525 5.33447C34.38 5.33447 34.8075 5.4386 35.145 5.66173C35.7975 6.09311 35.7975 6.80713 35.145 7.23851L20.475 16.9372C19.395 17.6512 19.395 18.8115 20.475 19.5255L35.145 29.2242C35.7975 29.6556 35.7975 30.3696 35.145 30.801C34.4925 31.2324 33.4125 31.2324 32.76 30.801L18.09 21.1023C16.9425 20.3437 16.29 19.3173 16.29 18.2314C16.29 17.1455 16.92 16.1191 18.09 15.3604L32.76 5.66173C33.0975 5.45347 33.525 5.33447 33.9525 5.33447Z" fill="#EAEAEA"/>
</svg>
