<svg width="22" height="22" viewBox="0 0 22 22" fill="none" xmlns="http://www.w3.org/2000/svg">
<path d="M5.30393 6.3204C5.14312 6.3204 4.97384 6.25269 4.85535 6.13419C4.6099 5.88874 4.6099 5.48248 4.85535 5.23703L7.92771 2.16468C8.17316 1.91923 8.57942 1.91923 8.82487 2.16468C9.07032 2.41013 9.07032 2.81639 8.82487 3.06184L5.75251 6.13419C5.62556 6.25269 5.46474 6.3204 5.30393 6.3204Z" fill="#752157"/>
<path d="M16.8316 6.3204C16.6708 6.3204 16.51 6.26115 16.383 6.13419L13.3107 3.06184C13.0652 2.81639 13.0652 2.41013 13.3107 2.16468C13.5561 1.91923 13.9624 1.91923 14.2078 2.16468L17.2802 5.23703C17.5256 5.48248 17.5256 5.88874 17.2802 6.13419C17.1617 6.25269 16.9924 6.3204 16.8316 6.3204Z" fill="#752157"/>
<path d="M18.0166 9.89214C17.9573 9.89214 17.8981 9.89214 17.8388 9.89214H17.6442H4.29678C3.70431 9.90061 3.02721 9.90061 2.53631 9.40971C2.14698 9.02884 1.96924 8.43637 1.96924 7.5646C1.96924 5.23706 3.67046 5.23706 4.48298 5.23706H17.6526C18.4652 5.23706 20.1664 5.23706 20.1664 7.5646C20.1664 8.44484 19.9886 9.02884 19.5993 9.40971C19.1592 9.84982 18.5667 9.89214 18.0166 9.89214ZM4.48298 8.62258H17.8473C18.2282 8.63104 18.5836 8.63104 18.7021 8.51255C18.7614 8.4533 18.8883 8.25017 18.8883 7.5646C18.8883 6.60819 18.6514 6.50663 17.6442 6.50663H4.48298C3.47579 6.50663 3.23881 6.60819 3.23881 7.5646C3.23881 8.25017 3.37423 8.4533 3.42501 8.51255C3.5435 8.62258 3.90745 8.62258 4.27985 8.62258H4.48298Z" fill="#752157"/>
<path d="M9.17189 16.4092C8.82488 16.4092 8.53711 16.1215 8.53711 15.7744V12.7698C8.53711 12.4228 8.82488 12.135 9.17189 12.135C9.51891 12.135 9.80668 12.4228 9.80668 12.7698V15.7744C9.80668 16.1299 9.51891 16.4092 9.17189 16.4092Z" fill="#752157"/>
<path d="M13.0653 16.4092C12.7182 16.4092 12.4305 16.1215 12.4305 15.7744V12.7698C12.4305 12.4228 12.7182 12.135 13.0653 12.135C13.4123 12.135 13.7 12.4228 13.7 12.7698V15.7744C13.7 16.1299 13.4123 16.4092 13.0653 16.4092Z" fill="#752157"/>
<path d="M13.5138 20.1756H8.41015C5.38012 20.1756 4.70301 18.3728 4.44064 16.807L3.24724 9.48587C3.188 9.13885 3.42498 8.81723 3.772 8.75798C4.11901 8.69874 4.44064 8.93572 4.49988 9.28274L5.69328 16.5954C5.93873 18.0935 6.44655 18.9061 8.41015 18.9061H13.5138C15.689 18.9061 15.9345 18.1443 16.2138 16.6716L17.6357 9.26581C17.7034 8.9188 18.0335 8.69027 18.3805 8.76645C18.7275 8.83416 18.9476 9.16425 18.8799 9.51126L17.4579 16.9171C17.1278 18.6352 16.5777 20.1756 13.5138 20.1756Z" fill="#752157"/>
</svg>
