<svg width="28" height="28" viewBox="0 0 28 28" fill="none" xmlns="http://www.w3.org/2000/svg">
<path d="M13.7173 24.9742C13.3675 24.9742 13.0289 24.929 12.7468 24.8275C8.4359 23.3491 1.58588 18.1016 1.58588 10.3488C1.58588 6.39898 4.77954 3.19403 8.70674 3.19403C10.6139 3.19403 12.397 3.93884 13.7173 5.27048C15.0377 3.93884 16.8207 3.19403 18.7279 3.19403C22.6551 3.19403 25.8487 6.41027 25.8487 10.3488C25.8487 18.1129 18.9987 23.3491 14.6878 24.8275C14.4057 24.929 14.0671 24.9742 13.7173 24.9742ZM8.70674 4.88679C5.7162 4.88679 3.27863 7.33564 3.27863 10.3488C3.27863 18.0564 10.6929 22.3448 13.2998 23.2363C13.5029 23.304 13.943 23.304 14.1461 23.2363C16.7417 22.3448 24.1673 18.0677 24.1673 10.3488C24.1673 7.33564 21.7297 4.88679 18.7391 4.88679C17.0238 4.88679 15.4326 5.68803 14.4057 7.07609C14.0897 7.50492 13.3675 7.50492 13.0515 7.07609C12.002 5.67674 10.4221 4.88679 8.70674 4.88679Z" fill="#C7C9D9"/>
</svg>
