<svg width="14" height="14" viewBox="0 0 14 14" fill="none" xmlns="http://www.w3.org/2000/svg">
<path d="M7.76584 2.28656L8.75893 4.27273C8.89435 4.54921 9.25547 4.81441 9.56017 4.8652L11.3601 5.16425C12.5112 5.3561 12.782 6.19119 11.9526 7.015L10.5533 8.41434C10.3163 8.65133 10.1865 9.10837 10.2598 9.43564L10.6605 11.1679C10.9764 12.539 10.2486 13.0694 9.03541 12.3528L7.3483 11.3541C7.0436 11.1735 6.54142 11.1735 6.23108 11.3541L4.54396 12.3528C3.33646 13.0694 2.60293 12.5334 2.91892 11.1679L3.31954 9.43564C3.39289 9.10837 3.26311 8.65133 3.02612 8.41434L1.62678 7.015C0.80297 6.19119 1.06817 5.3561 2.21924 5.16425L4.01921 4.8652C4.31826 4.81441 4.67938 4.54921 4.8148 4.27273L5.80789 2.28656C6.34957 1.20884 7.2298 1.20884 7.76584 2.28656Z" fill="#FFA700"/>
</svg>
